<svg id="visual" viewBox="0 0 900 600" width="900" height="600" xmlns="http://www.w3.org/2000/svg" xmlns:xlink="http://www.w3.org/1999/xlink" version="1.1"><rect x="0" y="0" width="900" height="600" fill="#FFFFFF"></rect><defs><linearGradient id="grad1_0" x1="33.3%" y1="100%" x2="100%" y2="0%"><stop offset="20%" stop-color="#ff0000" stop-opacity="1"></stop><stop offset="80%" stop-color="#ff0000" stop-opacity="1"></stop></linearGradient></defs><defs><linearGradient id="grad1_1" x1="33.3%" y1="100%" x2="100%" y2="0%"><stop offset="20%" stop-color="#ff0000" stop-opacity="1"></stop><stop offset="80%" stop-color="#ff6846" stop-opacity="1"></stop></linearGradient></defs><defs><linearGradient id="grad1_2" x1="33.3%" y1="100%" x2="100%" y2="0%"><stop offset="20%" stop-color="#ff9e81" stop-opacity="1"></stop><stop offset="80%" stop-color="#ff6846" stop-opacity="1"></stop></linearGradient></defs><defs><linearGradient id="grad1_3" x1="33.3%" y1="100%" x2="100%" y2="0%"><stop offset="20%" stop-color="#ff9e81" stop-opacity="1"></stop><stop offset="80%" stop-color="#ffcfbf" stop-opacity="1"></stop></linearGradient></defs><defs><linearGradient id="grad1_4" x1="33.3%" y1="100%" x2="100%" y2="0%"><stop offset="20%" stop-color="#ffffff" stop-opacity="1"></stop><stop offset="80%" stop-color="#ffcfbf" stop-opacity="1"></stop></linearGradient></defs><defs><linearGradient id="grad2_0" x1="0%" y1="100%" x2="66.7%" y2="0%"><stop offset="20%" stop-color="#ff0000" stop-opacity="1"></stop><stop offset="80%" stop-color="#ff0000" stop-opacity="1"></stop></linearGradient></defs><defs><linearGradient id="grad2_1" x1="0%" y1="100%" x2="66.7%" y2="0%"><stop offset="20%" stop-color="#ff6846" stop-opacity="1"></stop><stop offset="80%" stop-color="#ff0000" stop-opacity="1"></stop></linearGradient></defs><defs><linearGradient id="grad2_2" x1="0%" y1="100%" x2="66.7%" y2="0%"><stop offset="20%" stop-color="#ff6846" stop-opacity="1"></stop><stop offset="80%" stop-color="#ff9e81" stop-opacity="1"></stop></linearGradient></defs><defs><linearGradient id="grad2_3" x1="0%" y1="100%" x2="66.7%" y2="0%"><stop offset="20%" stop-color="#ffcfbf" stop-opacity="1"></stop><stop offset="80%" stop-color="#ff9e81" stop-opacity="1"></stop></linearGradient></defs><defs><linearGradient id="grad2_4" x1="0%" y1="100%" x2="66.7%" y2="0%"><stop offset="20%" stop-color="#ffcfbf" stop-opacity="1"></stop><stop offset="80%" stop-color="#ffffff" stop-opacity="1"></stop></linearGradient></defs><g transform="translate(900, 600)"><path d="M-270.4 0C-265.8 -27.5 -261.2 -54.9 -253.9 -82.5C-246.7 -110.1 -236.8 -137.7 -218.8 -158.9C-200.8 -180.2 -174.7 -194.9 -149.9 -206.3C-125 -217.7 -101.4 -225.7 -76.6 -235.9C-51.9 -246 -25.9 -258.2 0 -270.4L0 0Z" fill="#ffe7de"></path><path d="M-216.3 0C-212.6 -22 -209 -44 -203.1 -66C-197.3 -88.1 -189.4 -110.2 -175 -127.2C-160.6 -144.1 -139.8 -155.9 -119.9 -165C-100 -174.2 -81.1 -180.6 -61.3 -188.7C-41.5 -196.8 -20.7 -206.6 0 -216.3L0 0Z" fill="#ffb7a0"></path><path d="M-162.2 0C-159.5 -16.5 -156.7 -33 -152.4 -49.5C-148 -66 -142.1 -82.6 -131.3 -95.4C-120.5 -108.1 -104.8 -116.9 -89.9 -123.8C-75 -130.6 -60.8 -135.4 -46 -141.5C-31.1 -147.6 -15.6 -154.9 0 -162.2L0 0Z" fill="#ff8464"></path><path d="M-108.2 0C-106.3 -11 -104.5 -22 -101.6 -33C-98.7 -44 -94.7 -55.1 -87.5 -63.6C-80.3 -72.1 -69.9 -78 -60 -82.5C-50 -87.1 -40.6 -90.3 -30.7 -94.3C-20.7 -98.4 -10.4 -103.3 0 -108.2L0 0Z" fill="#ff4628"></path><path d="M-54.1 0C-53.2 -5.5 -52.2 -11 -50.8 -16.5C-49.3 -22 -47.4 -27.5 -43.8 -31.8C-40.2 -36 -34.9 -39 -30 -41.3C-25 -43.5 -20.3 -45.1 -15.3 -47.2C-10.4 -49.2 -5.2 -51.6 0 -54.1L0 0Z" fill="#ff0000"></path></g><g transform="translate(0, 0)"><path d="M270.4 0C269.8 29.5 269.1 59.1 257.2 83.6C245.2 108 222 127.5 201.4 146.4C180.9 165.2 163.1 183.6 142.2 195.8C121.4 208 97.5 214 73.2 225.4C49 236.8 24.5 253.6 0 270.4L0 0Z" fill="#ffe7de"></path><path d="M216.3 0C215.8 23.6 215.3 47.3 205.7 66.9C196.2 86.4 177.6 102 161.2 117.1C144.7 132.2 130.5 146.9 113.8 156.6C97.1 166.4 78 171.2 58.6 180.3C39.2 189.4 19.6 202.9 0 216.3L0 0Z" fill="#ffb7a0"></path><path d="M162.2 0C161.9 17.7 161.5 35.4 154.3 50.1C147.1 64.8 133.2 76.5 120.9 87.8C108.5 99.1 97.9 110.2 85.3 117.5C72.8 124.8 58.5 128.4 43.9 135.2C29.4 142.1 14.7 152.2 0 162.2L0 0Z" fill="#ff8464"></path><path d="M108.2 0C107.9 11.8 107.7 23.6 102.9 33.4C98.1 43.2 88.8 51 80.6 58.5C72.4 66.1 65.2 73.4 56.9 78.3C48.6 83.2 39 85.6 29.3 90.2C19.6 94.7 9.8 101.4 0 108.2L0 0Z" fill="#ff4628"></path><path d="M54.1 0C54 5.9 53.8 11.8 51.4 16.7C49 21.6 44.4 25.5 40.3 29.3C36.2 33 32.6 36.7 28.4 39.2C24.3 41.6 19.5 42.8 14.6 45.1C9.8 47.4 4.9 50.7 0 54.1L0 0Z" fill="#ff0000"></path></g></svg>